# xmcd
#
# Track frame offsets: 
#        150
#        17142
#        31002
#        46752
#        63403
#        80359
#        99765
#        115326
#        130410
#        145443
#        160059
#        176179
#
# Disc length: 2605 seconds
#
# Revision: 0
# Processed by: cddbd v1.5.2PL0 Copyright (c) Steve Scherf et al.
# Submitted via: ExactAudioCopyFreeDBPlugin 1.0
#
DISCID=970a2b0c
DTITLE=Samantha Landrum - Hometown
DYEAR=1900
DGENRE=Country
TTITLE0=What If
TTITLE1=One Stone at a Time
TTITLE2=I Taught You to Love Her
TTITLE3=I'll Still Need Your Shoulder
TTITLE4=Hometown
TTITLE5=Just Another Day
TTITLE6=I'm In Love
TTITLE7=Girls Believe
TTITLE8=Waste of a Good Heartache
TTITLE9=That Man's Hot
TTITLE10=Pipes Of Peace
TTITLE11=Name
EXTD=
EXTT0=
EXTT1=
EXTT2=
EXTT3=
EXTT4=
EXTT5=
EXTT6=
EXTT7=
EXTT8=
EXTT9=
EXTT10=
EXTT11=
PLAYORDER=
